<svg width="256" height="256" viewBox="0 0 256 256" fill="none" xmlns="http://www.w3.org/2000/svg">
<path d="M210 28C226.569 28 240 41.4315 240 58V164.053C240 180.621 226.568 194.053 210 194.053H173.201C166.571 194.053 160.212 196.687 155.523 201.375L137.074 219.824C131.997 224.901 123.766 224.901 118.689 219.824L100.24 201.375C95.5519 196.687 89.193 194.053 82.5626 194.053H47C30.4316 194.053 17.0002 180.621 17 164.053V58C17 41.4315 30.4315 28 47 28H210Z" fill="#00DC82"/>
<circle cx="127.326" cy="110.85" r="51.6376" fill="white"/>
<path d="M94.9377 110.856C94.9377 110.856 94.9377 143.25 127.332 143.25C159.727 143.25 159.727 110.856 159.727 110.856H94.9377ZM107.87 104.629C104.105 103.441 97.7632 100.749 92.9077 95.141C85.3849 86.4593 92.4073 74.0234 105.685 80.2611C111.362 71.0035 125.446 74.4301 123.574 85.6602C122.318 93.1829 116.754 99.831 113.489 103.175C112.781 103.916 111.879 104.445 110.887 104.702C109.894 104.959 108.849 104.934 107.87 104.629ZM161.767 95.141C156.908 100.749 150.573 103.445 146.805 104.629C145.826 104.934 144.781 104.959 143.788 104.702C142.796 104.445 141.894 103.916 141.186 103.175C137.922 99.831 132.357 93.1829 131.101 85.6602C129.229 74.4301 143.313 71.0035 148.99 80.2611C162.271 74.0234 169.29 86.4593 161.767 95.141Z" fill="#00DC82"/>
<path d="M86.886 72.7853C96.0645 62.8186 109.677 56.8652 127.332 56.8652C144.987 56.8652 158.597 62.8186 167.771 72.7853C176.903 82.7016 181.319 96.2353 181.319 110.852C181.319 125.469 176.903 139 167.771 148.919C158.593 158.886 144.984 164.839 127.332 164.839C109.681 164.839 96.0681 158.886 86.8896 148.919C77.7544 139.003 73.3416 125.469 73.3416 110.852C73.3416 96.2353 77.7544 82.7016 86.886 72.7853ZM88.5813 79.9949C87.3103 81.7562 86.5234 83.8201 86.2993 85.9806C82.4948 93.1002 80.5403 101.595 80.5403 110.856C80.5403 124.066 84.5212 135.728 92.1843 144.046C99.8006 152.317 111.38 157.644 127.329 157.644C143.278 157.644 154.857 152.317 162.473 144.046C170.136 135.728 174.117 124.069 174.117 110.856C174.117 101.62 172.173 93.1398 168.38 86.031C168.163 83.8539 167.374 81.7729 166.094 79.9985C164.736 78.118 162.856 76.6765 160.688 75.852C153.093 68.6172 142.079 64.064 127.332 64.064C112.575 64.064 101.557 68.6244 93.9588 75.8592C91.8037 76.6863 89.9327 78.1234 88.5813 79.9949Z" fill="#00DC82"/>
</svg>
